<svg xmlns="http://www.w3.org/2000/svg" version="1.1" xmlns:xlink="http://www.w3.org/1999/xlink" width="200" height="200"><svg xmlns="http://www.w3.org/2000/svg" version="1.1" xmlns:xlink="http://www.w3.org/1999/xlink" viewBox="0 0 200 200"><rect width="200" height="200" fill="url('#gradient')"></rect><defs><linearGradient id="SvgjsLinearGradient1001" gradientTransform="rotate(80 0.5 0.5)"><stop offset="0%" stop-color="#ceaa96"></stop><stop offset="100%" stop-color="#8fa983"></stop></linearGradient></defs><g><g fill="#445272" transform="matrix(4.639081848384174,0,0,4.639081848384174,17.47264768475314,132.98812850513187)" stroke="#dbcac5" stroke-width="0.5"><path d="M8.16-14.22L8.16 0L4.86 0L4.86-10.51L1.62-9.56L1.62-12.06L7.86-14.22L8.16-14.22ZM18.94-5.50L18.94-5.50Q17.87-4.54 16.55-4.54L16.55-4.54Q14.62-4.54 13.49-5.85Q12.35-7.16 12.35-9.35L12.35-9.35Q12.35-10.71 12.99-11.88Q13.62-13.06 14.77-13.74Q15.92-14.42 17.30-14.42L17.30-14.42Q18.71-14.42 19.85-13.72Q20.99-13.01 21.62-11.71Q22.26-10.42 22.28-8.73L22.28-8.73L22.28-7.47Q22.28-5.12 21.35-3.39Q20.43-1.66 18.72-0.73Q17.01 0.20 14.74 0.20L14.74 0.20L14.53 0.20L14.53-2.44L15.16-2.45Q18.55-2.62 18.94-5.50ZM17.44-6.91L17.44-6.91Q18.52-6.91 18.98-7.84L18.98-7.84L18.98-9.21Q18.98-10.58 18.53-11.23Q18.07-11.88 17.29-11.88L17.29-11.88Q16.59-11.88 16.12-11.14Q15.65-10.40 15.65-9.35L15.65-9.35Q15.65-8.23 16.13-7.57Q16.61-6.91 17.44-6.91ZM33.96-2.54L33.96 0L24.03 0L24.03-2.15L28.60-6.95Q30.29-8.88 30.29-10.01L30.29-10.01Q30.29-10.93 29.89-11.41Q29.49-11.88 28.73-11.88L28.73-11.88Q27.98-11.88 27.51-11.25Q27.04-10.61 27.04-9.65L27.04-9.65L23.74-9.65Q23.74-10.96 24.39-12.07Q25.05-13.17 26.21-13.80Q27.37-14.42 28.81-14.42L28.81-14.42Q31.11-14.42 32.36-13.36Q33.60-12.29 33.60-10.30L33.60-10.30Q33.60-9.46 33.29-8.67Q32.98-7.87 32.32-7.00Q31.66-6.12 30.20-4.66L30.20-4.66L28.36-2.54L33.96-2.54Z"></path></g></g></svg><style>@media (prefers-color-scheme: light) { :root { filter: none; } }
@media (prefers-color-scheme: dark) { :root { filter: none; } }
</style></svg>